<?xml version="1.0" encoding="utf-8"?>
<!-- Generator: Adobe Illustrator 25.2.3, SVG Export Plug-In . SVG Version: 6.00 Build 0)  -->
<svg version="1.1" id="Layer_1" xmlns="http://www.w3.org/2000/svg" xmlns:xlink="http://www.w3.org/1999/xlink" x="0px" y="0px"
	 viewBox="0 0 100 100" style="enable-background:new 0 0 100 100;" xml:space="preserve">
<style type="text/css">
	.st0{fill:none;}
	.st1{fill:#FF0025;stroke:#000000;stroke-linejoin:round;stroke-miterlimit:10;}
	.st2{fill:#0097F7;stroke:#000000;stroke-linejoin:round;stroke-miterlimit:10;}
	.st3{fill:#FFFFFF;stroke:#000000;stroke-linejoin:round;stroke-miterlimit:10;}
	.st4{fill:#FFFFFF;stroke:#000000;stroke-width:0.75;stroke-miterlimit:10;}
</style>
<g>
	<g>
		<polygon class="st0" points="50,90.7 3,90.7 26.5,50 50,9.3 73.5,50 97,90.7 		"/>
		<g>
			<g>
				<polygon class="st1" points="50,90.7 50,90.7 50,90.7 				"/>
				<polygon class="st1" points="39.1,90.7 49.9,90.7 50,90.7 39.1,90.7 				"/>
				<polygon class="st1" points="44.6,81.3 19.4,81.1 22.9,75 32,59.3 32,59.3 37.3,50.1 32,40.5 17.5,65.6 3,90.7 13.8,90.7 
					39.1,90.7 50,90.7 50,90.7 				"/>
			</g>
			<g>
				<polygon class="st2" points="82.5,65.6 73.5,50 68.1,59.3 75.2,71.7 60.9,71.7 55.4,81.2 80.7,81.2 86.2,90.7 97,90.7 				"/>
			</g>
			<polygon class="st3" points="73.5,49.9 68.1,40.6 62.6,50 59,56.3 50,72 40.9,56.3 37.3,50 31.9,40.7 26.5,50 26.5,50.1 
				35.5,65.6 50,90.7 64.4,65.6 			"/>
		</g>
	</g>
	<polygon class="st4" points="49.9,56 46.6,57.7 47.2,54.1 44.6,51.5 48.3,51 49.9,47.7 51.5,51 55.2,51.5 52.5,54.1 53.2,57.7 	"/>
	<polygon class="st4" points="49.9,24.5 46.6,26.2 47.2,22.6 44.6,20 48.3,19.5 49.9,16.2 51.5,19.5 55.2,20 52.5,22.6 53.2,26.2 	
		"/>
	<polygon class="st4" points="58.5,40.3 55.2,42 55.8,38.3 53.2,35.8 56.9,35.2 58.5,31.9 60.1,35.2 63.8,35.8 61.1,38.3 61.8,42 	
		"/>
	<polygon class="st4" points="41.3,40.3 38,42 38.6,38.3 36,35.8 39.7,35.2 41.3,31.9 42.9,35.2 46.6,35.8 43.9,38.3 44.6,42 	"/>
</g>
</svg>
